{"title":"TED 2 {2015} HQTS XVID AC3 READNFO-MRG","uid":12103145,"size":1619521492,"categoryP":"video","categoryS":"movies","magnet":"?xt=urn:btih:e2048bb101e351b6bda6f929e34e6a7153cac467&amp;dn=TED+2+%7B2015%7D+HQTS+XVID+AC3+READNFO-MRG&amp;tr=udp%3A%2F%2Ftracker.openbittorrent.com%3A80&amp;tr=udp%3A%2F%2Fopen.demonii.com%3A1337&amp;tr=udp%3A%2F%2Ftracker.coppersurfer.tk%3A6969&amp;tr=udp%3A%2F%2Fexodus.desync.com%3A6969","seeders":11,"leechers":1,"uploader":"SaM","files":13,"time":1436381712,"description":"TED 2 {2015} HQTS XVID AC3 READNFO-MRG\n\nnfo: played around with rgb....smoothed...ect......\nsample included....\n\nFormat : AVI\nFormat/Info : Audio Video Interleave\nFile size : 1.48 GiB\nDuration : 1h 48mn\nOverall bit rate : 1 953 Kbps\nWriting library : VirtualDub build 35491/release\n\nVideo\nID : 0\nFormat : MPEG-4 Visual\nFormat profile : Advanced Simple@L5\nFormat settings, BVOP : 2\nFormat settings, QPel : No\nFormat settings, GMC : No warppoints\nFormat settings, Matrix : Default (H.263)\nMuxing mode : Packed bitstream\nCodec ID : XVID\nCodec ID/Hint : XviD\nDuration : 1h 48mn\nBit rate : 1 752 Kbps\nWidth : 720 pixels\nHeight : 288 pixels\nDisplay aspect ratio : 2.500\nFrame rate : 25.000 fps\nColor space : YUV\nChroma subsampling : 4:2:0\nBit depth : 8 bits\nScan type : Progressive\nCompression mode : Lossy\nBits/(Pixel*Frame) : 0.338\nStream size : 1.33 GiB (90%)\nWriting library : XviD 73\n\nAudio\nID : 1\nFormat : AC-3\nFormat/Info : Audio Coding 3\nMode extension : CM (complete main)\nFormat settings, Endianness : Big\nCodec ID : 2000\nDuration : 1h 48mn\nBit rate mode : Constant\nBit rate : 192 Kbps\nChannel(s) : 2 channels\nChannel positions : Front: L R\nSampling rate : 48.0 KHz\nBit depth : 16 bits\nCompression mode : Lossy\nStream size : 149 MiB (10%)\nAlignment : Split accross interleaves\nInterleave, duration : 40 ms (1.00 video frame)\nInterleave, preload duratio : 500 ms\n &lt;a href=&quot;\nhttp://extraimago.com/image/cje&quot; rel=&quot;nofollow&quot; target=&quot;_NEW&quot;&gt;\nhttp://extraimago.com/image/cje&lt;/a&gt; &lt;a href=&quot;\nhttp://extraimago.com/image/cjZ&quot; rel=&quot;nofollow&quot; target=&quot;_NEW&quot;&gt;\nhttp://extraimago.com/image/cjZ&lt;/a&gt; &lt;a href=&quot;\nhttp://extraimago.com/image/cjK&quot; rel=&quot;nofollow&quot; target=&quot;_NEW&quot;&gt;\nhttp://extraimago.com/image/cjK&lt;/a&gt; &lt;a href=&quot;\nhttp://extraimago.com/image/cjJ&quot; rel=&quot;nofollow&quot; target=&quot;_NEW&quot;&gt;\nhttp://extraimago.com/image/cjJ&lt;/a&gt; &lt;a href=&quot;\nhttp://extraimago.com/image/cj0&quot; rel=&quot;nofollow&quot; target=&quot;_NEW&quot;&gt;\nhttp://extraimago.com/image/cj0&lt;/a&gt; &lt;a href=&quot;\nhttp://extraimago.com/image/cjz&quot; rel=&quot;nofollow&quot; target=&quot;_NEW&quot;&gt;\nhttp://extraimago.com/image/cjz&lt;/a&gt; &lt;a href=&quot;\nhttp://extraimago.com/image/cjU&quot; rel=&quot;nofollow&quot; target=&quot;_NEW&quot;&gt;\nhttp://extraimago.com/image/cjU&lt;/a&gt; &lt;a href=&quot;\nhttp://extraimago.com/image/cjM&quot; rel=&quot;nofollow&quot; target=&quot;_NEW&quot;&gt;\nhttp://extraimago.com/image/cjM&lt;/a&gt;","torrent":{"xt":"urn:btih:e2048bb101e351b6bda6f929e34e6a7153cac467","amp;dn":"TED+2+%7B2015%7D+HQTS+XVID+AC3+READNFO-MRG","amp;tr":["udp%3A%2F%2Ftracker.openbittorrent.com%3A80","udp%3A%2F%2Fopen.demonii.com%3A1337","udp%3A%2F%2Ftracker.coppersurfer.tk%3A6969","udp%3A%2F%2Fexodus.desync.com%3A6969"],"infoHash":"e2048bb101e351b6bda6f929e34e6a7153cac467","infoHashBuffer":{"type":"Buffer","data":[226,4,139,177,1,227,81,182,189,166,249,41,227,78,106,113,83,202,196,103]},"announce":[],"urlList":[]}}